P2
7 9
9
1 2 3 4 5 6 7
4 5 6 7 8 9 1
7 8 9 1 2 3 4
2 3 4 5 6 7 8 
5 6 7 8 9 1 2
8 9 1 2 3 4 5
3 4 5 6 7 8 9
6 7 8 9 1 2 3
9 1 2 3 4 5 6